<svg xmlns="http://www.w3.org/2000/svg" id="svg" class="svg" viewBox="0 0 1080 1920" preserveAspectRatio="xMinYMin meet">
<g>
  <title>background</title>
  <rect fill="none" id="canvas_background" height="402" width="582" y="-1" x="-1"/>
 </g>
 <g>
  <title>Layer 1</title>
  <g id="svg_31">
   <path id="svg_32" d="m0,266.427l843.5,0c93.5,0 170,76.5 170,170l0,7.287c0,93.5 -76.5,170 -170,170l-601,0" stroke-miterlimit="10" stroke-width="4" stroke="#4D5152" fill="none"/>
  </g>
  <g id="svg_33">
   <path id="svg_34" d="m324,963l-85,0c-45.755,0 -88.896,-17.943 -121.477,-50.523c-32.58,-32.581 -50.523,-75.722 -50.523,-121.477l0,-7.287c0,-45.755 17.943,-88.896 50.523,-121.477c32.58,-32.581 75.722,-50.523 121.477,-50.523l601,0l0,4l-601,0c-92.636,0 -168,75.364 -168,168l0,7.287c0,92.636 75.364,168 168,168l85,0l0,4z" fill="#4D5152"/>
  </g>
  <g id="svg_35">
   <path id="svg_36" d="m843.5,1310.287l-521,0l0,-4l521,0c92.636,0 168,-75.364 168,-168l0,-7.287c0,-92.636 -75.364,-168 -168,-168l-87,0l0,-4l87,0c45.755,0 88.896,17.942 121.477,50.523c32.581,32.58 50.523,75.722 50.523,121.477l0,7.287c0,45.755 -17.942,88.896 -50.523,121.477c-32.581,32.581 -75.722,50.523 -121.477,50.523z" fill="#4D5152"/>
  </g>
  <path id="svg_38" d="m845,1308.287l-601,0c-93.5,0 -170,76.5 -170,170l0,7.287c0,93.5 76.5,170 170,170l841,0" stroke-miterlimit="10" stroke-width="4" stroke="#4D5152" fill="none"/>
  <circle id="svg_367" r="216.5" cy="961" cx="540" fill="#4D5152" clip-rule="evenodd" fill-rule="evenodd" opacity="0.6"/>
  <g id="svg_571">
   <g id="svg_572">
    <g id="svg_573">
     <defs transform="translate(0,1) translate(-1,0) ">
      <path d="m519.58,1049.526c-2.248,-1.499 -4.746,-0.749 -7.244,2.123l0,0l-14.238,25.727l-0.749,1.499l-0.125,0.25l-1.748,3.122l43.712,0l-19.608,-32.721z" id="SVGID_1_"/>
     </defs>
     <clipPath transform="translate(0,1) translate(-1,0) " id="SVGID_2_">
      <use id="svg_574" xlink:href="#SVGID_1_"/>
     </clipPath>
    </g>
   </g>
   <g id="svg_575">
    <path id="svg_576" d="m568.786,1081.624c-4.746,3.122 -9.742,1.748 -14.862,-4.246l0,0l-29.1,-52.704l-1.748,-3.122l-0.125,-0.375l-4.121,-7.493l-1.374,-2.373c-1.249,-4.621 -2.123,-9.866 -2.498,-15.486l0.125,-2.248l1.873,-58.199l0.25,-4.496c0.874,-2.248 2.248,-2.872 4.121,-1.624l1.624,2.872l0.375,0.749c0.25,0.125 0.5,0.125 0.624,0.25l2.123,3.872l36.593,66.067l0.5,0.874l42.088,-71.562l0,-0.874l0.25,0.5l34.47,-58.449l0,0.25l18.359,-31.223l2.248,-3.747c1.374,-0.375 2.498,0.5 3.122,2.748l0,4.746l0,63.944l0,2.623c-0.5,5.87 -1.499,10.99 -2.872,15.611l-1.499,2.498l-3.872,6.619l-86.674,143.998z" fill="#FFFFFF" clip-rule="evenodd" fill-rule="evenodd"/>
    <path id="svg_577" d="m475.243,1081.624c-4.871,3.122 -9.741,1.748 -14.987,-4.246l0,0l-29.099,-52.704l-1.748,-3.122l-0.125,-0.5l-11.115,-19.982l-1.374,-2.498c-1.249,-4.621 -2.123,-9.742 -2.498,-15.486l0.125,-2.248l1.998,-58.449l0.125,-4.496c0.874,-2.373 2.373,-2.872 4.121,-1.748l1.624,2.997l7.743,13.863c0.125,0 0.25,0.125 0.375,0.125l2.123,3.872l17.485,31.597l0,-0.25l19.608,35.344l41.963,-71.313l0,-0.874l0.375,0.5l34.345,-58.449l0,0.25l18.484,-31.223l2.123,-3.747c1.499,-0.375 2.498,0.5 3.247,2.748l0,4.746l0,63.944l0,2.623c-0.624,5.87 -1.499,10.99 -2.997,15.611l-1.374,2.498l-3.997,6.619l-86.55,143.998z" fill="#FFFFFF" clip-rule="evenodd" fill-rule="evenodd"/>
    <g id="svg_578">
     <defs transform="translate(0,1) translate(-1,0) ">
      <path d="m519.58,1049.526c-2.248,-1.499 -4.746,-0.749 -7.244,2.123l0,0l-14.238,25.727l-0.749,1.499l-0.125,0.25l-1.748,3.122l43.712,0l-19.608,-32.721z" id="SVGID_3_"/>
     </defs>
     <use x="-1" y="1" id="svg_579" fill="#FFFFFF" clip-rule="evenodd" fill-rule="evenodd" xlink:href="#SVGID_3_"/>
     <clipPath transform="translate(0,1) translate(-1,0) " id="SVGID_4_">
      <use x="-1" y="1" id="svg_580" xlink:href="#SVGID_3_"/>
     </clipPath>
     <polyline id="svg_581" points="494.47601318359375,1049.0269775390625 494.60101318359375,1049.0269775390625 494.60101318359375,1083.2469482421875 494.47601318359375,1083.2469482421875 " fill="#FFFFFF" clip-rule="evenodd" fill-rule="evenodd" clip-path="url(#SVGID_4_)"/>
     <polyline id="svg_582" points="494.47601318359375,1049.0269775390625 494.72601318359375,1049.0269775390625 494.72601318359375,1083.2469482421875 494.47601318359375,1083.2469482421875 " fill="#FFFFFF" clip-rule="evenodd" fill-rule="evenodd" clip-path="url(#SVGID_4_)"/>
     <polyline id="svg_583" points="494.72601318359375,1049.0269775390625 494.97601318359375,1049.0269775390625 494.97601318359375,1083.2469482421875 494.72601318359375,1083.2469482421875 " fill="#FFFFFF" clip-rule="evenodd" fill-rule="evenodd" clip-path="url(#SVGID_4_)"/>
     <polyline id="svg_584" points="494.85101318359375,1049.0269775390625 495.10101318359375,1049.0269775390625 495.10101318359375,1083.2469482421875 494.85101318359375,1083.2469482421875 " fill="#FFFFFF" clip-rule="evenodd" fill-rule="evenodd" clip-path="url(#SVGID_4_)"/>
     <polyline id="svg_585" points="494.97601318359375,1049.0269775390625 495.22601318359375,1049.0269775390625 495.22601318359375,1083.2469482421875 494.97601318359375,1083.2469482421875 " fill="#FFFFFF" clip-rule="evenodd" fill-rule="evenodd" clip-path="url(#SVGID_4_)"/>
     <polyline id="svg_586" points="495.22601318359375,1049.0269775390625 495.47601318359375,1049.0269775390625 495.47601318359375,1083.2469482421875 495.22601318359375,1083.2469482421875 " fill="#FFFFFF" clip-rule="evenodd" fill-rule="evenodd" clip-path="url(#SVGID_4_)"/>
     <polyline id="svg_587" points="495.35101318359375,1049.0269775390625 495.6000061035156,1049.0269775390625 495.6000061035156,1083.2469482421875 495.35101318359375,1083.2469482421875 " fill="#FFFFFF" clip-rule="evenodd" fill-rule="evenodd" clip-path="url(#SVGID_4_)"/>
     <polyline id="svg_588" points="495.47601318359375,1049.0269775390625 495.8500061035156,1049.0269775390625 495.8500061035156,1083.2469482421875 495.47601318359375,1083.2469482421875 " fill="#FFFFFF" clip-rule="evenodd" fill-rule="evenodd" clip-path="url(#SVGID_4_)"/>
     <polyline id="svg_589" points="495.7250061035156,1049.0269775390625 495.9750061035156,1049.0269775390625 495.9750061035156,1083.2469482421875 495.7250061035156,1083.2469482421875 " fill="#FFFFFF" clip-rule="evenodd" fill-rule="evenodd" clip-path="url(#SVGID_4_)"/>
     <polyline id="svg_590" points="495.8500061035156,1049.0269775390625 496.1000061035156,1049.0269775390625 496.1000061035156,1083.2469482421875 495.8500061035156,1083.2469482421875 " fill="#FFFFFF" clip-rule="evenodd" fill-rule="evenodd" clip-path="url(#SVGID_4_)"/>
     <polyline id="svg_591" points="496.1000061035156,1049.0269775390625 496.3500061035156,1049.0269775390625 496.3500061035156,1083.2469482421875 496.1000061035156,1083.2469482421875 " fill="#FFFFFF" clip-rule="evenodd" fill-rule="evenodd" clip-path="url(#SVGID_4_)"/>
     <polyline id="svg_592" points="496.2250061035156,1049.0269775390625 496.4750061035156,1049.0269775390625 496.4750061035156,1083.2469482421875 496.2250061035156,1083.2469482421875 " fill="#FFFFFF" clip-rule="evenodd" fill-rule="evenodd" clip-path="url(#SVGID_4_)"/>
     <polyline id="svg_593" points="496.3500061035156,1049.0269775390625 496.6000061035156,1049.0269775390625 496.6000061035156,1083.2469482421875 496.3500061035156,1083.2469482421875 " fill="#FFFFFF" clip-rule="evenodd" fill-rule="evenodd" clip-path="url(#SVGID_4_)"/>
     <polyline id="svg_594" points="496.6000061035156,1049.0269775390625 496.8489990234375,1049.0269775390625 496.8489990234375,1083.2469482421875 496.6000061035156,1083.2469482421875 " fill="#FFFFFF" clip-rule="evenodd" fill-rule="evenodd" clip-path="url(#SVGID_4_)"/>
     <polyline id="svg_595" points="496.7250061035156,1049.0269775390625 496.9739990234375,1049.0269775390625 496.9739990234375,1083.2469482421875 496.7250061035156,1083.2469482421875 " fill="#FFFFFF" clip-rule="evenodd" fill-rule="evenodd" clip-path="url(#SVGID_4_)"/>
     <polyline id="svg_596" points="496.8489990234375,1049.0269775390625 497.0989990234375,1049.0269775390625 497.0989990234375,1083.2469482421875 496.8489990234375,1083.2469482421875 " fill="#FFFFFF" clip-rule="evenodd" fill-rule="evenodd" clip-path="url(#SVGID_4_)"/>
     <polyline id="svg_597" points="497.0989990234375,1049.0269775390625 497.3489990234375,1049.0269775390625 497.3489990234375,1083.2469482421875 497.0989990234375,1083.2469482421875 " fill="#FFFFFF" clip-rule="evenodd" fill-rule="evenodd" clip-path="url(#SVGID_4_)"/>
     <polyline id="svg_598" points="497.2239990234375,1049.0269775390625 497.4739990234375,1049.0269775390625 497.4739990234375,1083.2469482421875 497.2239990234375,1083.2469482421875 " fill="#FFFFFF" clip-rule="evenodd" fill-rule="evenodd" clip-path="url(#SVGID_4_)"/>
     <polyline id="svg_599" points="497.4739990234375,1049.0269775390625 497.7239990234375,1049.0269775390625 497.7239990234375,1083.2469482421875 497.4739990234375,1083.2469482421875 " fill="#FFFFFF" clip-rule="evenodd" fill-rule="evenodd" clip-path="url(#SVGID_4_)"/>
     <polyline id="svg_600" points="497.5989990234375,1049.0269775390625 497.8489990234375,1049.0269775390625 497.8489990234375,1083.2469482421875 497.5989990234375,1083.2469482421875 " fill="#FFFFFF" clip-rule="evenodd" fill-rule="evenodd" clip-path="url(#SVGID_4_)"/>
     <polyline id="svg_601" points="497.7239990234375,1049.0269775390625 497.9729919433594,1049.0269775390625 497.9729919433594,1083.2469482421875 497.7239990234375,1083.2469482421875 " fill="#FFFFFF" clip-rule="evenodd" fill-rule="evenodd" clip-path="url(#SVGID_4_)"/>
     <polyline id="svg_602" points="497.9729919433594,1049.0269775390625 498.2229919433594,1049.0269775390625 498.2229919433594,1083.2469482421875 497.9729919433594,1083.2469482421875 " fill="#FFFFFF" clip-rule="evenodd" fill-rule="evenodd" clip-path="url(#SVGID_4_)"/>
     <polyline id="svg_603" points="498.0979919433594,1049.0269775390625 498.3479919433594,1049.0269775390625 498.3479919433594,1083.2469482421875 498.0979919433594,1083.2469482421875 " fill="#FFFFFF" clip-rule="evenodd" fill-rule="evenodd" clip-path="url(#SVGID_4_)"/>
     <polyline id="svg_604" points="498.2229919433594,1049.0269775390625 498.4729919433594,1049.0269775390625 498.4729919433594,1083.2469482421875 498.2229919433594,1083.2469482421875 " fill="#FFFFFF" clip-rule="evenodd" fill-rule="evenodd" clip-path="url(#SVGID_4_)"/>
     <polyline id="svg_605" points="498.4729919433594,1049.0269775390625 498.7229919433594,1049.0269775390625 498.7229919433594,1083.2469482421875 498.4729919433594,1083.2469482421875 " fill="#FFFFFF" clip-rule="evenodd" fill-rule="evenodd" clip-path="url(#SVGID_4_)"/>
     <polyline id="svg_606" points="498.5979919433594,1049.0269775390625 498.8479919433594,1049.0269775390625 498.8479919433594,1083.2469482421875 498.5979919433594,1083.2469482421875 " fill="#FFFFFF" clip-rule="evenodd" fill-rule="evenodd" clip-path="url(#SVGID_4_)"/>
     <polyline id="svg_607" points="498.7229919433594,1049.0269775390625 499.09698486328125,1049.0269775390625 499.09698486328125,1083.2469482421875 498.7229919433594,1083.2469482421875 " fill="#FFFFFF" clip-rule="evenodd" fill-rule="evenodd" clip-path="url(#SVGID_4_)"/>
     <polyline id="svg_608" points="498.9729919433594,1049.0269775390625 499.22198486328125,1049.0269775390625 499.22198486328125,1083.2469482421875 498.9729919433594,1083.2469482421875 " fill="#FFFFFF" clip-rule="evenodd" fill-rule="evenodd" clip-path="url(#SVGID_4_)"/>
     <polyline id="svg_609" points="499.09698486328125,1049.0269775390625 499.34698486328125,1049.0269775390625 499.34698486328125,1083.2469482421875 499.09698486328125,1083.2469482421875 " fill="#FFFFFF" clip-rule="evenodd" fill-rule="evenodd" clip-path="url(#SVGID_4_)"/>
     <polyline id="svg_610" points="499.34698486328125,1049.0269775390625 499.59698486328125,1049.0269775390625 499.59698486328125,1083.2469482421875 499.34698486328125,1083.2469482421875 " fill="#FFFFFF" clip-rule="evenodd" fill-rule="evenodd" clip-path="url(#SVGID_4_)"/>
     <polyline id="svg_611" points="499.47198486328125,1049.0269775390625 499.72198486328125,1049.0269775390625 499.72198486328125,1083.2469482421875 499.47198486328125,1083.2469482421875 " fill="#FFFFFF" clip-rule="evenodd" fill-rule="evenodd" clip-path="url(#SVGID_4_)"/>
     <polyline id="svg_612" points="499.59698486328125,1049.0269775390625 499.84698486328125,1049.0269775390625 499.84698486328125,1083.2469482421875 499.59698486328125,1083.2469482421875 " fill="#FFFFFF" clip-rule="evenodd" fill-rule="evenodd" clip-path="url(#SVGID_4_)"/>
     <polyline id="svg_613" points="499.84698486328125,1049.0269775390625 500.09698486328125,1049.0269775390625 500.09698486328125,1083.2469482421875 499.84698486328125,1083.2469482421875 " fill="#FFFFFF" clip-rule="evenodd" fill-rule="evenodd" clip-path="url(#SVGID_4_)"/>
     <polyline id="svg_614" points="499.97198486328125,1049.0269775390625 500.22100830078125,1049.0269775390625 500.22100830078125,1083.2469482421875 499.97198486328125,1083.2469482421875 " fill="#FFFFFF" clip-rule="evenodd" fill-rule="evenodd" clip-path="url(#SVGID_4_)"/>
     <polyline id="svg_615" points="500.09698486328125,1049.0269775390625 500.34600830078125,1049.0269775390625 500.34600830078125,1083.2469482421875 500.09698486328125,1083.2469482421875 " fill="#FFFFFF" clip-rule="evenodd" fill-rule="evenodd" clip-path="url(#SVGID_4_)"/>
     <polyline id="svg_616" points="500.34600830078125,1049.0269775390625 500.59600830078125,1049.0269775390625 500.59600830078125,1083.2469482421875 500.34600830078125,1083.2469482421875 " fill="#FFFFFF" clip-rule="evenodd" fill-rule="evenodd" clip-path="url(#SVGID_4_)"/>
     <polyline id="svg_617" points="500.47100830078125,1049.0269775390625 500.72100830078125,1049.0269775390625 500.72100830078125,1083.2469482421875 500.47100830078125,1083.2469482421875 " fill="#FFFFFF" clip-rule="evenodd" fill-rule="evenodd" clip-path="url(#SVGID_4_)"/>
     <polyline id="svg_618" points="500.72100830078125,1049.0269775390625 500.97100830078125,1049.0269775390625 500.97100830078125,1083.2469482421875 500.72100830078125,1083.2469482421875 " fill="#FFFFFF" clip-rule="evenodd" fill-rule="evenodd" clip-path="url(#SVGID_4_)"/>
     <polyline id="svg_619" points="500.84600830078125,1049.0269775390625 501.09600830078125,1049.0269775390625 501.09600830078125,1083.2469482421875 500.84600830078125,1083.2469482421875 " fill="#FFFFFF" clip-rule="evenodd" fill-rule="evenodd" clip-path="url(#SVGID_4_)"/>
     <polyline id="svg_620" points="500.97100830078125,1049.0269775390625 501.22100830078125,1049.0269775390625 501.22100830078125,1083.2469482421875 500.97100830078125,1083.2469482421875 " fill="#FFFFFF" clip-rule="evenodd" fill-rule="evenodd" clip-path="url(#SVGID_4_)"/>
     <polyline id="svg_621" points="501.22100830078125,1049.0269775390625 501.4700012207031,1049.0269775390625 501.4700012207031,1083.2469482421875 501.22100830078125,1083.2469482421875 " fill="#FFFFFF" clip-rule="evenodd" fill-rule="evenodd" clip-path="url(#SVGID_4_)"/>
     <polyline id="svg_622" points="501.3450012207031,1049.0269775390625 501.5950012207031,1049.0269775390625 501.5950012207031,1083.2469482421875 501.3450012207031,1083.2469482421875 " fill="#FFFFFF" clip-rule="evenodd" fill-rule="evenodd" clip-path="url(#SVGID_4_)"/>
     <polyline id="svg_623" points="501.4700012207031,1049.0269775390625 501.7200012207031,1049.0269775390625 501.7200012207031,1083.2469482421875 501.4700012207031,1083.2469482421875 " fill="#FFFFFF" clip-rule="evenodd" fill-rule="evenodd" clip-path="url(#SVGID_4_)"/>
     <polyline id="svg_624" points="501.7200012207031,1049.0269775390625 501.9700012207031,1049.0269775390625 501.9700012207031,1083.2469482421875 501.7200012207031,1083.2469482421875 " fill="#FFFFFF" clip-rule="evenodd" fill-rule="evenodd" clip-path="url(#SVGID_4_)"/>
     <polyline id="svg_625" points="501.8450012207031,1049.0269775390625 502.0950012207031,1049.0269775390625 502.0950012207031,1083.2469482421875 501.8450012207031,1083.2469482421875 " fill="#FFFFFF" clip-rule="evenodd" fill-rule="evenodd" clip-path="url(#SVGID_4_)"/>
     <polyline id="svg_626" points="501.9700012207031,1049.0269775390625 502.2200012207031,1049.0269775390625 502.2200012207031,1083.2469482421875 501.9700012207031,1083.2469482421875 " fill="#FFFFFF" clip-rule="evenodd" fill-rule="evenodd" clip-path="url(#SVGID_4_)"/>
     <polyline id="svg_627" points="502.2200012207031,1049.0269775390625 502.468994140625,1049.0269775390625 502.468994140625,1083.2469482421875 502.2200012207031,1083.2469482421875 " fill="#FFFFFF" clip-rule="evenodd" fill-rule="evenodd" clip-path="url(#SVGID_4_)"/>
     <polyline id="svg_628" points="502.3450012207031,1049.0269775390625 502.593994140625,1049.0269775390625 502.593994140625,1083.2469482421875 502.3450012207031,1083.2469482421875 " fill="#FFFFFF" clip-rule="evenodd" fill-rule="evenodd" clip-path="url(#SVGID_4_)"/>
     <polyline id="svg_629" points="502.593994140625,1049.0269775390625 502.843994140625,1049.0269775390625 502.843994140625,1083.2469482421875 502.593994140625,1083.2469482421875 " fill="#FFFFFF" clip-rule="evenodd" fill-rule="evenodd" clip-path="url(#SVGID_4_)"/>
     <polyline id="svg_630" points="502.718994140625,1049.0269775390625 502.968994140625,1049.0269775390625 502.968994140625,1083.2469482421875 502.718994140625,1083.2469482421875 " fill="#FFFFFF" clip-rule="evenodd" fill-rule="evenodd" clip-path="url(#SVGID_4_)"/>
     <polyline id="svg_631" points="502.843994140625,1049.0269775390625 503.093994140625,1049.0269775390625 503.093994140625,1083.2469482421875 502.843994140625,1083.2469482421875 " fill="#FFFFFF" clip-rule="evenodd" fill-rule="evenodd" clip-path="url(#SVGID_4_)"/>
     <polyline id="svg_632" points="503.093994140625,1049.0269775390625 503.343994140625,1049.0269775390625 503.343994140625,1083.2469482421875 503.093994140625,1083.2469482421875 " fill="#FFFFFF" clip-rule="evenodd" fill-rule="evenodd" clip-path="url(#SVGID_4_)"/>
     <polyline id="svg_633" points="503.218994140625,1049.0269775390625 503.468994140625,1049.0269775390625 503.468994140625,1083.2469482421875 503.218994140625,1083.2469482421875 " fill="#FFFFFF" clip-rule="evenodd" fill-rule="evenodd" clip-path="url(#SVGID_4_)"/>
     <polyline id="svg_634" points="503.343994140625,1049.0269775390625 503.593994140625,1049.0269775390625 503.593994140625,1083.2469482421875 503.343994140625,1083.2469482421875 " fill="#FFFFFF" clip-rule="evenodd" fill-rule="evenodd" clip-path="url(#SVGID_4_)"/>
     <polyline id="svg_635" points="503.593994140625,1049.0269775390625 503.8429870605469,1049.0269775390625 503.8429870605469,1083.2469482421875 503.593994140625,1083.2469482421875 " fill="#FFFFFF" clip-rule="evenodd" fill-rule="evenodd" clip-path="url(#SVGID_4_)"/>
     <polyline id="svg_636" points="503.7179870605469,1049.0269775390625 503.9679870605469,1049.0269775390625 503.9679870605469,1083.2469482421875 503.7179870605469,1083.2469482421875 " fill="#FFFFFF" clip-rule="evenodd" fill-rule="evenodd" clip-path="url(#SVGID_4_)"/>
     <polyline id="svg_637" points="503.8429870605469,1049.0269775390625 504.2179870605469,1049.0269775390625 504.2179870605469,1083.2469482421875 503.8429870605469,1083.2469482421875 " fill="#FFFFFF" clip-rule="evenodd" fill-rule="evenodd" clip-path="url(#SVGID_4_)"/>
     <polyline id="svg_638" points="504.0929870605469,1049.0269775390625 504.3429870605469,1049.0269775390625 504.3429870605469,1083.2469482421875 504.0929870605469,1083.2469482421875 " fill="#FFFFFF" clip-rule="evenodd" fill-rule="evenodd" clip-path="url(#SVGID_4_)"/>
     <polyline id="svg_639" points="504.2179870605469,1049.0269775390625 504.4679870605469,1049.0269775390625 504.4679870605469,1083.2469482421875 504.2179870605469,1083.2469482421875 " fill="#FFFFFF" clip-rule="evenodd" fill-rule="evenodd" clip-path="url(#SVGID_4_)"/>
     <polyline id="svg_640" points="504.4679870605469,1049.0269775390625 504.7179870605469,1049.0269775390625 504.7179870605469,1083.2469482421875 504.4679870605469,1083.2469482421875 " fill="#FFFFFF" clip-rule="evenodd" fill-rule="evenodd" clip-path="url(#SVGID_4_)"/>
     <polyline id="svg_641" points="504.5929870605469,1049.0269775390625 504.8420104980469,1049.0269775390625 504.8420104980469,1083.2469482421875 504.5929870605469,1083.2469482421875 " fill="#FFFFFF" clip-rule="evenodd" fill-rule="evenodd" clip-path="url(#SVGID_4_)"/>
     <polyline id="svg_642" points="504.7179870605469,1049.0269775390625 504.9670104980469,1049.0269775390625 504.9670104980469,1083.2469482421875 504.7179870605469,1083.2469482421875 " fill="#FFFFFF" clip-rule="evenodd" fill-rule="evenodd" clip-path="url(#SVGID_4_)"/>
     <polyline id="svg_643" points="504.9670104980469,1049.0269775390625 505.2170104980469,1049.0269775390625 505.2170104980469,1083.2469482421875 504.9670104980469,1083.2469482421875 " fill="#FFFFFF" clip-rule="evenodd" fill-rule="evenodd" clip-path="url(#SVGID_4_)"/>
     <polyline id="svg_644" points="505.0920104980469,1049.0269775390625 505.3420104980469,1049.0269775390625 505.3420104980469,1083.2469482421875 505.0920104980469,1083.2469482421875 " fill="#FFFFFF" clip-rule="evenodd" fill-rule="evenodd" clip-path="url(#SVGID_4_)"/>
     <polyline id="svg_645" points="505.2170104980469,1049.0269775390625 505.4670104980469,1049.0269775390625 505.4670104980469,1083.2469482421875 505.2170104980469,1083.2469482421875 " fill="#FFFFFF" clip-rule="evenodd" fill-rule="evenodd" clip-path="url(#SVGID_4_)"/>
     <polyline id="svg_646" points="505.4670104980469,1049.0269775390625 505.7170104980469,1049.0269775390625 505.7170104980469,1083.2469482421875 505.4670104980469,1083.2469482421875 " fill="#FFFFFF" clip-rule="evenodd" fill-rule="evenodd" clip-path="url(#SVGID_4_)"/>
     <polyline id="svg_647" points="505.5920104980469,1049.0269775390625 505.8420104980469,1049.0269775390625 505.8420104980469,1083.2469482421875 505.5920104980469,1083.2469482421875 " fill="#FFFFFF" clip-rule="evenodd" fill-rule="evenodd" clip-path="url(#SVGID_4_)"/>
     <polyline id="svg_648" points="505.8420104980469,1049.0269775390625 506.09100341796875,1049.0269775390625 506.09100341796875,1083.2469482421875 505.8420104980469,1083.2469482421875 " fill="#FFFFFF" clip-rule="evenodd" fill-rule="evenodd" clip-path="url(#SVGID_4_)"/>
     <polyline id="svg_649" points="505.96600341796875,1049.0269775390625 506.21600341796875,1049.0269775390625 506.21600341796875,1083.2469482421875 505.96600341796875,1083.2469482421875 " fill="#FFFFFF" clip-rule="evenodd" fill-rule="evenodd" clip-path="url(#SVGID_4_)"/>
     <polyline id="svg_650" points="506.09100341796875,1049.0269775390625 506.34100341796875,1049.0269775390625 506.34100341796875,1083.2469482421875 506.09100341796875,1083.2469482421875 " fill="#FFFFFF" clip-rule="evenodd" fill-rule="evenodd" clip-path="url(#SVGID_4_)"/>
     <polyline id="svg_651" points="506.34100341796875,1049.0269775390625 506.59100341796875,1049.0269775390625 506.59100341796875,1083.2469482421875 506.34100341796875,1083.2469482421875 " fill="#FFFFFF" clip-rule="evenodd" fill-rule="evenodd" clip-path="url(#SVGID_4_)"/>
     <polyline id="svg_652" points="506.46600341796875,1049.0269775390625 506.71600341796875,1049.0269775390625 506.71600341796875,1083.2469482421875 506.46600341796875,1083.2469482421875 " fill="#FFFFFF" clip-rule="evenodd" fill-rule="evenodd" clip-path="url(#SVGID_4_)"/>
     <polyline id="svg_653" points="506.59100341796875,1049.0269775390625 506.84100341796875,1049.0269775390625 506.84100341796875,1083.2469482421875 506.59100341796875,1083.2469482421875 " fill="#FFFFFF" clip-rule="evenodd" fill-rule="evenodd" clip-path="url(#SVGID_4_)"/>
     <polyline id="svg_654" points="506.84100341796875,1049.0269775390625 507.0899963378906,1049.0269775390625 507.0899963378906,1083.2469482421875 506.84100341796875,1083.2469482421875 " fill="#FFFFFF" clip-rule="evenodd" fill-rule="evenodd" clip-path="url(#SVGID_4_)"/>
     <polyline id="svg_655" points="506.96600341796875,1049.0269775390625 507.2149963378906,1049.0269775390625 507.2149963378906,1083.2469482421875 506.96600341796875,1083.2469482421875 " fill="#FFFFFF" clip-rule="evenodd" fill-rule="evenodd" clip-path="url(#SVGID_4_)"/>
     <polyline id="svg_656" points="507.0899963378906,1049.0269775390625 507.4649963378906,1049.0269775390625 507.4649963378906,1083.2469482421875 507.0899963378906,1083.2469482421875 " fill="#FFFFFF" clip-rule="evenodd" fill-rule="evenodd" clip-path="url(#SVGID_4_)"/>
     <polyline id="svg_657" points="507.3399963378906,1049.0269775390625 507.5899963378906,1049.0269775390625 507.5899963378906,1083.2469482421875 507.3399963378906,1083.2469482421875 " fill="#FFFFFF" clip-rule="evenodd" fill-rule="evenodd" clip-path="url(#SVGID_4_)"/>
     <polyline id="svg_658" points="507.4649963378906,1049.0269775390625 507.7149963378906,1049.0269775390625 507.7149963378906,1083.2469482421875 507.4649963378906,1083.2469482421875 " fill="#FFFFFF" clip-rule="evenodd" fill-rule="evenodd" clip-path="url(#SVGID_4_)"/>
     <polyline id="svg_659" points="507.7149963378906,1049.0269775390625 507.9649963378906,1049.0269775390625 507.9649963378906,1083.2469482421875 507.7149963378906,1083.2469482421875 " fill="#FFFFFF" clip-rule="evenodd" fill-rule="evenodd" clip-path="url(#SVGID_4_)"/>
     <polyline id="svg_660" points="507.8399963378906,1049.0269775390625 508.0899963378906,1049.0269775390625 508.0899963378906,1083.2469482421875 507.8399963378906,1083.2469482421875 " fill="#FFFFFF" clip-rule="evenodd" fill-rule="evenodd" clip-path="url(#SVGID_4_)"/>
     <polyline id="svg_661" points="507.9649963378906,1049.0269775390625 508.2139892578125,1049.0269775390625 508.2139892578125,1083.2469482421875 507.9649963378906,1083.2469482421875 " fill="#FFFFFF" clip-rule="evenodd" fill-rule="evenodd" clip-path="url(#SVGID_4_)"/>
     <polyline id="svg_662" points="508.2139892578125,1049.0269775390625 508.4639892578125,1049.0269775390625 508.4639892578125,1083.2469482421875 508.2139892578125,1083.2469482421875 " fill="#FFFFFF" clip-rule="evenodd" fill-rule="evenodd" clip-path="url(#SVGID_4_)"/>
     <polyline id="svg_663" points="508.3389892578125,1049.0269775390625 508.5889892578125,1049.0269775390625 508.5889892578125,1083.2469482421875 508.3389892578125,1083.2469482421875 " fill="#FFFFFF" clip-rule="evenodd" fill-rule="evenodd" clip-path="url(#SVGID_4_)"/>
     <polyline id="svg_664" points="508.4639892578125,1049.0269775390625 508.7139892578125,1049.0269775390625 508.7139892578125,1083.2469482421875 508.4639892578125,1083.2469482421875 " fill="#FFFFFF" clip-rule="evenodd" fill-rule="evenodd" clip-path="url(#SVGID_4_)"/>
     <polyline id="svg_665" points="508.7139892578125,1049.0269775390625 508.9639892578125,1049.0269775390625 508.9639892578125,1083.2469482421875 508.7139892578125,1083.2469482421875 " fill="#FFFFFF" clip-rule="evenodd" fill-rule="evenodd" clip-path="url(#SVGID_4_)"/>
     <polyline id="svg_666" points="508.8389892578125,1049.0269775390625 509.0889892578125,1049.0269775390625 509.0889892578125,1083.2469482421875 508.8389892578125,1083.2469482421875 " fill="#FFFFFF" clip-rule="evenodd" fill-rule="evenodd" clip-path="url(#SVGID_4_)"/>
     <polyline id="svg_667" points="509.0889892578125,1049.0269775390625 509.3380126953125,1049.0269775390625 509.3380126953125,1083.2469482421875 509.0889892578125,1083.2469482421875 " fill="#FFFFFF" clip-rule="evenodd" fill-rule="evenodd" clip-path="url(#SVGID_4_)"/>
     <polyline id="svg_668" points="509.2139892578125,1049.0269775390625 509.4630126953125,1049.0269775390625 509.4630126953125,1083.2469482421875 509.2139892578125,1083.2469482421875 " fill="#FFFFFF" clip-rule="evenodd" fill-rule="evenodd" clip-path="url(#SVGID_4_)"/>
     <polyline id="svg_669" points="509.3380126953125,1049.0269775390625 509.5880126953125,1049.0269775390625 509.5880126953125,1083.2469482421875 509.3380126953125,1083.2469482421875 " fill="#FFFFFF" clip-rule="evenodd" fill-rule="evenodd" clip-path="url(#SVGID_4_)"/>
     <polyline id="svg_670" points="509.5880126953125,1049.0269775390625 509.8380126953125,1049.0269775390625 509.8380126953125,1083.2469482421875 509.5880126953125,1083.2469482421875 " fill="#FFFFFF" clip-rule="evenodd" fill-rule="evenodd" clip-path="url(#SVGID_4_)"/>
     <polyline id="svg_671" points="509.7130126953125,1049.0269775390625 509.9630126953125,1049.0269775390625 509.9630126953125,1083.2469482421875 509.7130126953125,1083.2469482421875 " fill="#FFFFFF" clip-rule="evenodd" fill-rule="evenodd" clip-path="url(#SVGID_4_)"/>
     <polyline id="svg_672" points="509.8380126953125,1049.0269775390625 510.0880126953125,1049.0269775390625 510.0880126953125,1083.2469482421875 509.8380126953125,1083.2469482421875 " fill="#FFFFFF" clip-rule="evenodd" fill-rule="evenodd" clip-path="url(#SVGID_4_)"/>
     <polyline id="svg_673" points="510.0880126953125,1049.0269775390625 510.3380126953125,1049.0269775390625 510.3380126953125,1083.2469482421875 510.0880126953125,1083.2469482421875 " fill="#FFFFFF" clip-rule="evenodd" fill-rule="evenodd" clip-path="url(#SVGID_4_)"/>
     <polyline id="svg_674" points="510.2130126953125,1049.0269775390625 510.4620056152344,1049.0269775390625 510.4620056152344,1083.2469482421875 510.2130126953125,1083.2469482421875 " fill="#FFFFFF" clip-rule="evenodd" fill-rule="evenodd" clip-path="url(#SVGID_4_)"/>
     <polyline id="svg_675" points="510.3380126953125,1049.0269775390625 510.7120056152344,1049.0269775390625 510.7120056152344,1083.2469482421875 510.3380126953125,1083.2469482421875 " fill="#FFFFFF" clip-rule="evenodd" fill-rule="evenodd" clip-path="url(#SVGID_4_)"/>
     <polyline id="svg_676" points="510.5870056152344,1049.0269775390625 510.8370056152344,1049.0269775390625 510.8370056152344,1083.2469482421875 510.5870056152344,1083.2469482421875 " fill="#FFFFFF" clip-rule="evenodd" fill-rule="evenodd" clip-path="url(#SVGID_4_)"/>
     <polyline id="svg_677" points="510.7120056152344,1049.0269775390625 510.9620056152344,1049.0269775390625 510.9620056152344,1083.2469482421875 510.7120056152344,1083.2469482421875 " fill="#FFFFFF" clip-rule="evenodd" fill-rule="evenodd" clip-path="url(#SVGID_4_)"/>
     <polyline id="svg_678" points="510.9620056152344,1049.0269775390625 511.21197509765625,1049.0269775390625 511.21197509765625,1083.2469482421875 510.9620056152344,1083.2469482421875 " fill="#FFFFFF" clip-rule="evenodd" fill-rule="evenodd" clip-path="url(#SVGID_4_)"/>
     <polyline id="svg_679" points="511.08697509765625,1049.0269775390625 511.33697509765625,1049.0269775390625 511.33697509765625,1083.2469482421875 511.08697509765625,1083.2469482421875 " fill="#FFFFFF" clip-rule="evenodd" fill-rule="evenodd" clip-path="url(#SVGID_4_)"/>
     <polyline id="svg_680" points="511.21197509765625,1049.0269775390625 511.46197509765625,1049.0269775390625 511.46197509765625,1083.2469482421875 511.21197509765625,1083.2469482421875 " fill="#FFFFFF" clip-rule="evenodd" fill-rule="evenodd" clip-path="url(#SVGID_4_)"/>
     <polyline id="svg_681" points="511.46197509765625,1049.0269775390625 511.71099853515625,1049.0269775390625 511.71099853515625,1083.2469482421875 511.46197509765625,1083.2469482421875 " fill="#FFFFFF" clip-rule="evenodd" fill-rule="evenodd" clip-path="url(#SVGID_4_)"/>
     <polyline id="svg_682" points="511.58599853515625,1049.0269775390625 511.83599853515625,1049.0269775390625 511.83599853515625,1083.2469482421875 511.58599853515625,1083.2469482421875 " fill="#FFFFFF" clip-rule="evenodd" fill-rule="evenodd" clip-path="url(#SVGID_4_)"/>
     <polyline id="svg_683" points="511.71099853515625,1049.0269775390625 511.96099853515625,1049.0269775390625 511.96099853515625,1083.2469482421875 511.71099853515625,1083.2469482421875 " fill="#FFFFFF" clip-rule="evenodd" fill-rule="evenodd" clip-path="url(#SVGID_4_)"/>
     <polyline id="svg_684" points="511.96099853515625,1049.0269775390625 512.2109985351562,1049.0269775390625 512.2109985351562,1083.2469482421875 511.96099853515625,1083.2469482421875 " fill="#FFFFFF" clip-rule="evenodd" fill-rule="evenodd" clip-path="url(#SVGID_4_)"/>
     <polyline id="svg_685" points="512.0859985351562,1049.0269775390625 512.3359985351562,1049.0269775390625 512.3359985351562,1083.2469482421875 512.0859985351562,1083.2469482421875 " fill="#FFFFFF" clip-rule="evenodd" fill-rule="evenodd" clip-path="url(#SVGID_4_)"/>
     <polyline id="svg_686" points="512.2109985351562,1049.0269775390625 512.5859985351562,1049.0269775390625 512.5859985351562,1083.2469482421875 512.2109985351562,1083.2469482421875 " fill="#FFFFFF" clip-rule="evenodd" fill-rule="evenodd" clip-path="url(#SVGID_4_)"/>
     <polyline id="svg_687" points="512.4609985351562,1049.0269775390625 512.7109985351562,1049.0269775390625 512.7109985351562,1083.2469482421875 512.4609985351562,1083.2469482421875 " fill="#FFFFFF" clip-rule="evenodd" fill-rule="evenodd" clip-path="url(#SVGID_4_)"/>
     <polyline id="svg_688" points="512.5859985351562,1049.0269775390625 512.8350219726562,1049.0269775390625 512.8350219726562,1083.2469482421875 512.5859985351562,1083.2469482421875 " fill="#FFFFFF" clip-rule="evenodd" fill-rule="evenodd" clip-path="url(#SVGID_4_)"/>
     <polyline id="svg_689" points="512.8350219726562,1049.0269775390625 513.0850219726562,1049.0269775390625 513.0850219726562,1083.2469482421875 512.8350219726562,1083.2469482421875 " fill="#FFFFFF" clip-rule="evenodd" fill-rule="evenodd" clip-path="url(#SVGID_4_)"/>
     <polyline id="svg_690" points="512.9600219726562,1049.0269775390625 513.2100219726562,1049.0269775390625 513.2100219726562,1083.2469482421875 512.9600219726562,1083.2469482421875 " fill="#FFFFFF" clip-rule="evenodd" fill-rule="evenodd" clip-path="url(#SVGID_4_)"/>
     <polyline id="svg_691" points="513.0850219726562,1049.0269775390625 513.3350219726562,1049.0269775390625 513.3350219726562,1083.2469482421875 513.0850219726562,1083.2469482421875 " fill="#FFFFFF" clip-rule="evenodd" fill-rule="evenodd" clip-path="url(#SVGID_4_)"/>
     <polyline id="svg_692" points="513.3350219726562,1049.0269775390625 513.5850219726562,1049.0269775390625 513.5850219726562,1083.2469482421875 513.3350219726562,1083.2469482421875 " fill="#FFFFFF" clip-rule="evenodd" fill-rule="evenodd" clip-path="url(#SVGID_4_)"/>
     <polyline id="svg_693" points="513.4600219726562,1049.0269775390625 513.7100219726562,1049.0269775390625 513.7100219726562,1083.2469482421875 513.4600219726562,1083.2469482421875 " fill="#FFFFFF" clip-rule="evenodd" fill-rule="evenodd" clip-path="url(#SVGID_4_)"/>
     <polyline id="svg_694" points="513.5850219726562,1049.0269775390625 513.8350219726562,1049.0269775390625 513.8350219726562,1083.2469482421875 513.5850219726562,1083.2469482421875 " fill="#FFFFFF" clip-rule="evenodd" fill-rule="evenodd" clip-path="url(#SVGID_4_)"/>
     <polyline id="svg_695" points="513.8350219726562,1049.0269775390625 514.083984375,1049.0269775390625 514.083984375,1083.2469482421875 513.8350219726562,1083.2469482421875 " fill="#FFFFFF" clip-rule="evenodd" fill-rule="evenodd" clip-path="url(#SVGID_4_)"/>
     <polyline id="svg_696" points="513.958984375,1049.0269775390625 514.208984375,1049.0269775390625 514.208984375,1083.2469482421875 513.958984375,1083.2469482421875 " fill="#FFFFFF" clip-rule="evenodd" fill-rule="evenodd" clip-path="url(#SVGID_4_)"/>
     <polyline id="svg_697" points="514.208984375,1049.0269775390625 514.458984375,1049.0269775390625 514.458984375,1083.2469482421875 514.208984375,1083.2469482421875 " fill="#FFFFFF" clip-rule="evenodd" fill-rule="evenodd" clip-path="url(#SVGID_4_)"/>
     <polyline id="svg_698" points="514.333984375,1049.0269775390625 514.583984375,1049.0269775390625 514.583984375,1083.2469482421875 514.333984375,1083.2469482421875 " fill="#FFFFFF" clip-rule="evenodd" fill-rule="evenodd" clip-path="url(#SVGID_4_)"/>
     <polyline id="svg_699" points="514.458984375,1049.0269775390625 514.708984375,1049.0269775390625 514.708984375,1083.2469482421875 514.458984375,1083.2469482421875 " fill="#FFFFFF" clip-rule="evenodd" fill-rule="evenodd" clip-path="url(#SVGID_4_)"/>
     <polyline id="svg_700" points="514.708984375,1049.0269775390625 514.958984375,1049.0269775390625 514.958984375,1083.2469482421875 514.708984375,1083.2469482421875 " fill="#FFFFFF" clip-rule="evenodd" fill-rule="evenodd" clip-path="url(#SVGID_4_)"/>
     <polyline id="svg_701" points="514.833984375,1049.0269775390625 515.0830078125,1049.0269775390625 515.0830078125,1083.2469482421875 514.833984375,1083.2469482421875 " fill="#FFFFFF" clip-rule="evenodd" fill-rule="evenodd" clip-path="url(#SVGID_4_)"/>
     <polyline id="svg_702" points="514.958984375,1049.0269775390625 515.2080078125,1049.0269775390625 515.2080078125,1083.2469482421875 514.958984375,1083.2469482421875 " fill="#FFFFFF" clip-rule="evenodd" fill-rule="evenodd" clip-path="url(#SVGID_4_)"/>
     <polyline id="svg_703" points="515.2080078125,1049.0269775390625 515.4580078125,1049.0269775390625 515.4580078125,1083.2469482421875 515.2080078125,1083.2469482421875 " fill="#FFFFFF" clip-rule="evenodd" fill-rule="evenodd" clip-path="url(#SVGID_4_)"/>
     <polyline id="svg_704" points="515.3330078125,1049.0269775390625 515.5830078125,1049.0269775390625 515.5830078125,1083.2469482421875 515.3330078125,1083.2469482421875 " fill="#FFFFFF" clip-rule="evenodd" fill-rule="evenodd" clip-path="url(#SVGID_4_)"/>
     <polyline id="svg_705" points="515.4580078125,1049.0269775390625 515.8330078125,1049.0269775390625 515.8330078125,1083.2469482421875 515.4580078125,1083.2469482421875 " fill="#FFFFFF" clip-rule="evenodd" fill-rule="evenodd" clip-path="url(#SVGID_4_)"/>
     <polyline id="svg_706" points="515.7080078125,1049.0269775390625 515.9580078125,1049.0269775390625 515.9580078125,1083.2469482421875 515.7080078125,1083.2469482421875 " fill="#FFFFFF" clip-rule="evenodd" fill-rule="evenodd" clip-path="url(#SVGID_4_)"/>
     <polyline id="svg_707" points="515.8330078125,1049.0269775390625 516.0830078125,1049.0269775390625 516.0830078125,1083.2469482421875 515.8330078125,1083.2469482421875 " fill="#FFFFFF" clip-rule="evenodd" fill-rule="evenodd" clip-path="url(#SVGID_4_)"/>
     <polyline id="svg_708" points="516.0830078125,1049.0269775390625 516.3319702148438,1049.0269775390625 516.3319702148438,1083.2469482421875 516.0830078125,1083.2469482421875 " fill="#FFFFFF" clip-rule="evenodd" fill-rule="evenodd" clip-path="url(#SVGID_4_)"/>
     <polyline id="svg_709" points="516.2069702148438,1049.0269775390625 516.4569702148438,1049.0269775390625 516.4569702148438,1083.2469482421875 516.2069702148438,1083.2469482421875 " fill="#FFFFFF" clip-rule="evenodd" fill-rule="evenodd" clip-path="url(#SVGID_4_)"/>
     <polyline id="svg_710" points="516.3319702148438,1049.0269775390625 516.5819702148438,1049.0269775390625 516.5819702148438,1083.2469482421875 516.3319702148438,1083.2469482421875 " fill="#FFFFFF" clip-rule="evenodd" fill-rule="evenodd" clip-path="url(#SVGID_4_)"/>
     <polyline id="svg_711" points="516.5819702148438,1049.0269775390625 516.8319702148438,1049.0269775390625 516.8319702148438,1083.2469482421875 516.5819702148438,1083.2469482421875 " fill="#FFFFFF" clip-rule="evenodd" fill-rule="evenodd" clip-path="url(#SVGID_4_)"/>
     <polyline id="svg_712" points="516.7069702148438,1049.0269775390625 516.9569702148438,1049.0269775390625 516.9569702148438,1083.2469482421875 516.7069702148438,1083.2469482421875 " fill="#FFFFFF" clip-rule="evenodd" fill-rule="evenodd" clip-path="url(#SVGID_4_)"/>
     <polyline id="svg_713" points="516.8319702148438,1049.0269775390625 517.0819702148438,1049.0269775390625 517.0819702148438,1083.2469482421875 516.8319702148438,1083.2469482421875 " fill="#FFFFFF" clip-rule="evenodd" fill-rule="evenodd" clip-path="url(#SVGID_4_)"/>
     <polyline id="svg_714" points="517.0819702148438,1049.0269775390625 517.3309936523438,1049.0269775390625 517.3309936523438,1083.2469482421875 517.0819702148438,1083.2469482421875 " fill="#FFFFFF" clip-rule="evenodd" fill-rule="evenodd" clip-path="url(#SVGID_4_)"/>
     <polyline id="svg_715" points="517.2069702148438,1049.0269775390625 517.4559936523438,1049.0269775390625 517.4559936523438,1083.2469482421875 517.2069702148438,1083.2469482421875 " fill="#FFFFFF" clip-rule="evenodd" fill-rule="evenodd" clip-path="url(#SVGID_4_)"/>
     <polyline id="svg_716" points="517.4559936523438,1049.0269775390625 517.7059936523438,1049.0269775390625 517.7059936523438,1083.2469482421875 517.4559936523438,1083.2469482421875 " fill="#FFFFFF" clip-rule="evenodd" fill-rule="evenodd" clip-path="url(#SVGID_4_)"/>
     <polyline id="svg_717" points="517.5809936523438,1049.0269775390625 517.8309936523438,1049.0269775390625 517.8309936523438,1083.2469482421875 517.5809936523438,1083.2469482421875 " fill="#FFFFFF" clip-rule="evenodd" fill-rule="evenodd" clip-path="url(#SVGID_4_)"/>
     <polyline id="svg_718" points="517.7059936523438,1049.0269775390625 517.9559936523438,1049.0269775390625 517.9559936523438,1083.2469482421875 517.7059936523438,1083.2469482421875 " fill="#FFFFFF" clip-rule="evenodd" fill-rule="evenodd" clip-path="url(#SVGID_4_)"/>
     <polyline id="svg_719" points="517.9559936523438,1049.0269775390625 518.2059936523438,1049.0269775390625 518.2059936523438,1083.2469482421875 517.9559936523438,1083.2469482421875 " fill="#FFFFFF" clip-rule="evenodd" fill-rule="evenodd" clip-path="url(#SVGID_4_)"/>
     <polyline id="svg_720" points="518.0809936523438,1049.0269775390625 518.3309936523438,1049.0269775390625 518.3309936523438,1083.2469482421875 518.0809936523438,1083.2469482421875 " fill="#FFFFFF" clip-rule="evenodd" fill-rule="evenodd" clip-path="url(#SVGID_4_)"/>
     <polyline id="svg_721" points="518.2059936523438,1049.0269775390625 518.4559936523438,1049.0269775390625 518.4559936523438,1083.2469482421875 518.2059936523438,1083.2469482421875 " fill="#FFFFFF" clip-rule="evenodd" fill-rule="evenodd" clip-path="url(#SVGID_4_)"/>
     <polyline id="svg_722" points="518.4559936523438,1049.0269775390625 518.7050170898438,1049.0269775390625 518.7050170898438,1083.2469482421875 518.4559936523438,1083.2469482421875 " fill="#FFFFFF" clip-rule="evenodd" fill-rule="evenodd" clip-path="url(#SVGID_4_)"/>
     <polyline id="svg_723" points="518.5800170898438,1049.0269775390625 518.8300170898438,1049.0269775390625 518.8300170898438,1083.2469482421875 518.5800170898438,1083.2469482421875 " fill="#FFFFFF" clip-rule="evenodd" fill-rule="evenodd" clip-path="url(#SVGID_4_)"/>
     <polyline id="svg_724" points="518.7050170898438,1049.0269775390625 519.0800170898438,1049.0269775390625 519.0800170898438,1083.2469482421875 518.7050170898438,1083.2469482421875 " fill="#FFFFFF" clip-rule="evenodd" fill-rule="evenodd" clip-path="url(#SVGID_4_)"/>
     <polyline id="svg_725" points="518.9550170898438,1049.0269775390625 519.2050170898438,1049.0269775390625 519.2050170898438,1083.2469482421875 518.9550170898438,1083.2469482421875 " fill="#FFFFFF" clip-rule="evenodd" fill-rule="evenodd" clip-path="url(#SVGID_4_)"/>
     <polyline id="svg_726" points="519.0800170898438,1049.0269775390625 519.3300170898438,1049.0269775390625 519.3300170898438,1083.2469482421875 519.0800170898438,1083.2469482421875 " fill="#FFFFFF" clip-rule="evenodd" fill-rule="evenodd" clip-path="url(#SVGID_4_)"/>
     <polyline id="svg_727" points="519.3300170898438,1049.0269775390625 519.5800170898438,1049.0269775390625 519.5800170898438,1083.2469482421875 519.3300170898438,1083.2469482421875 " fill="#FFFFFF" clip-rule="evenodd" fill-rule="evenodd" clip-path="url(#SVGID_4_)"/>
     <polyline id="svg_728" points="519.4550170898438,1049.0269775390625 519.7039794921875,1049.0269775390625 519.7039794921875,1083.2469482421875 519.4550170898438,1083.2469482421875 " fill="#FFFFFF" clip-rule="evenodd" fill-rule="evenodd" clip-path="url(#SVGID_4_)"/>
     <polyline id="svg_729" points="519.5800170898438,1049.0269775390625 519.8289794921875,1049.0269775390625 519.8289794921875,1083.2469482421875 519.5800170898438,1083.2469482421875 " fill="#FFFFFF" clip-rule="evenodd" fill-rule="evenodd" clip-path="url(#SVGID_4_)"/>
     <polyline id="svg_730" points="519.8289794921875,1049.0269775390625 520.0789794921875,1049.0269775390625 520.0789794921875,1083.2469482421875 519.8289794921875,1083.2469482421875 " fill="#FFFFFF" clip-rule="evenodd" fill-rule="evenodd" clip-path="url(#SVGID_4_)"/>
     <polyline id="svg_731" points="519.9539794921875,1049.0269775390625 520.2039794921875,1049.0269775390625 520.2039794921875,1083.2469482421875 519.9539794921875,1083.2469482421875 " fill="#FFFFFF" clip-rule="evenodd" fill-rule="evenodd" clip-path="url(#SVGID_4_)"/>
     <polyline id="svg_732" points="520.0789794921875,1049.0269775390625 520.3289794921875,1049.0269775390625 520.3289794921875,1083.2469482421875 520.0789794921875,1083.2469482421875 " fill="#FFFFFF" clip-rule="evenodd" fill-rule="evenodd" clip-path="url(#SVGID_4_)"/>
     <polyline id="svg_733" points="520.3289794921875,1049.0269775390625 520.5789794921875,1049.0269775390625 520.5789794921875,1083.2469482421875 520.3289794921875,1083.2469482421875 " fill="#FFFFFF" clip-rule="evenodd" fill-rule="evenodd" clip-path="url(#SVGID_4_)"/>
     <polyline id="svg_734" points="520.4539794921875,1049.0269775390625 520.7030029296875,1049.0269775390625 520.7030029296875,1083.2469482421875 520.4539794921875,1083.2469482421875 " fill="#FFFFFF" clip-rule="evenodd" fill-rule="evenodd" clip-path="url(#SVGID_4_)"/>
     <polyline id="svg_735" points="520.7030029296875,1049.0269775390625 520.9530029296875,1049.0269775390625 520.9530029296875,1083.2469482421875 520.7030029296875,1083.2469482421875 " fill="#FFFFFF" clip-rule="evenodd" fill-rule="evenodd" clip-path="url(#SVGID_4_)"/>
     <polyline id="svg_736" points="520.8280029296875,1049.0269775390625 521.0780029296875,1049.0269775390625 521.0780029296875,1083.2469482421875 520.8280029296875,1083.2469482421875 " fill="#FFFFFF" clip-rule="evenodd" fill-rule="evenodd" clip-path="url(#SVGID_4_)"/>
     <polyline id="svg_737" points="520.9530029296875,1049.0269775390625 521.2030029296875,1049.0269775390625 521.2030029296875,1083.2469482421875 520.9530029296875,1083.2469482421875 " fill="#FFFFFF" clip-rule="evenodd" fill-rule="evenodd" clip-path="url(#SVGID_4_)"/>
     <polyline id="svg_738" points="521.2030029296875,1049.0269775390625 521.4530029296875,1049.0269775390625 521.4530029296875,1083.2469482421875 521.2030029296875,1083.2469482421875 " fill="#FFFFFF" clip-rule="evenodd" fill-rule="evenodd" clip-path="url(#SVGID_4_)"/>
     <polyline id="svg_739" points="521.3280029296875,1049.0269775390625 521.5780029296875,1049.0269775390625 521.5780029296875,1083.2469482421875 521.3280029296875,1083.2469482421875 " fill="#FFFFFF" clip-rule="evenodd" fill-rule="evenodd" clip-path="url(#SVGID_4_)"/>
     <polyline id="svg_740" points="521.4530029296875,1049.0269775390625 521.7030029296875,1049.0269775390625 521.7030029296875,1083.2469482421875 521.4530029296875,1083.2469482421875 " fill="#FFFFFF" clip-rule="evenodd" fill-rule="evenodd" clip-path="url(#SVGID_4_)"/>
     <polyline id="svg_741" points="521.7030029296875,1049.0269775390625 521.9520263671875,1049.0269775390625 521.9520263671875,1083.2469482421875 521.7030029296875,1083.2469482421875 " fill="#FFFFFF" clip-rule="evenodd" fill-rule="evenodd" clip-path="url(#SVGID_4_)"/>
     <polyline id="svg_742" points="521.8280029296875,1049.0269775390625 522.0770263671875,1049.0269775390625 522.0770263671875,1083.2469482421875 521.8280029296875,1083.2469482421875 " fill="#FFFFFF" clip-rule="evenodd" fill-rule="evenodd" clip-path="url(#SVGID_4_)"/>
     <polyline id="svg_743" points="521.9520263671875,1049.0269775390625 522.2020263671875,1049.0269775390625 522.2020263671875,1083.2469482421875 521.9520263671875,1083.2469482421875 " fill="#FFFFFF" clip-rule="evenodd" fill-rule="evenodd" clip-path="url(#SVGID_4_)"/>
     <polyline id="svg_744" points="522.2020263671875,1049.0269775390625 522.4520263671875,1049.0269775390625 522.4520263671875,1083.2469482421875 522.2020263671875,1083.2469482421875 " fill="#FFFFFF" clip-rule="evenodd" fill-rule="evenodd" clip-path="url(#SVGID_4_)"/>
     <polyline id="svg_745" points="522.3270263671875,1049.0269775390625 522.5770263671875,1049.0269775390625 522.5770263671875,1083.2469482421875 522.3270263671875,1083.2469482421875 " fill="#FFFFFF" clip-rule="evenodd" fill-rule="evenodd" clip-path="url(#SVGID_4_)"/>
     <polyline id="svg_746" points="522.5770263671875,1049.0269775390625 522.8270263671875,1049.0269775390625 522.8270263671875,1083.2469482421875 522.5770263671875,1083.2469482421875 " fill="#FFFFFF" clip-rule="evenodd" fill-rule="evenodd" clip-path="url(#SVGID_4_)"/>
     <polyline id="svg_747" points="522.7020263671875,1049.0269775390625 522.9520263671875,1049.0269775390625 522.9520263671875,1083.2469482421875 522.7020263671875,1083.2469482421875 " fill="#FFFFFF" clip-rule="evenodd" fill-rule="evenodd" clip-path="url(#SVGID_4_)"/>
     <polyline id="svg_748" points="522.8270263671875,1049.0269775390625 523.0759887695312,1049.0269775390625 523.0759887695312,1083.2469482421875 522.8270263671875,1083.2469482421875 " fill="#FFFFFF" clip-rule="evenodd" fill-rule="evenodd" clip-path="url(#SVGID_4_)"/>
     <polyline id="svg_749" points="523.0759887695312,1049.0269775390625 523.3259887695312,1049.0269775390625 523.3259887695312,1083.2469482421875 523.0759887695312,1083.2469482421875 " fill="#FFFFFF" clip-rule="evenodd" fill-rule="evenodd" clip-path="url(#SVGID_4_)"/>
     <polyline id="svg_750" points="523.2009887695312,1049.0269775390625 523.4509887695312,1049.0269775390625 523.4509887695312,1083.2469482421875 523.2009887695312,1083.2469482421875 " fill="#FFFFFF" clip-rule="evenodd" fill-rule="evenodd" clip-path="url(#SVGID_4_)"/>
     <polyline id="svg_751" points="523.3259887695312,1049.0269775390625 523.5759887695312,1049.0269775390625 523.5759887695312,1083.2469482421875 523.3259887695312,1083.2469482421875 " fill="#FFFFFF" clip-rule="evenodd" fill-rule="evenodd" clip-path="url(#SVGID_4_)"/>
     <polyline id="svg_752" points="523.5759887695312,1049.0269775390625 523.8259887695312,1049.0269775390625 523.8259887695312,1083.2469482421875 523.5759887695312,1083.2469482421875 " fill="#FFFFFF" clip-rule="evenodd" fill-rule="evenodd" clip-path="url(#SVGID_4_)"/>
     <polyline id="svg_753" points="523.7009887695312,1049.0269775390625 523.9509887695312,1049.0269775390625 523.9509887695312,1083.2469482421875 523.7009887695312,1083.2469482421875 " fill="#FFFFFF" clip-rule="evenodd" fill-rule="evenodd" clip-path="url(#SVGID_4_)"/>
     <polyline id="svg_754" points="523.8259887695312,1049.0269775390625 524.2000122070312,1049.0269775390625 524.2000122070312,1083.2469482421875 523.8259887695312,1083.2469482421875 " fill="#FFFFFF" clip-rule="evenodd" fill-rule="evenodd" clip-path="url(#SVGID_4_)"/>
     <polyline id="svg_755" points="524.0759887695312,1049.0269775390625 524.3250122070312,1049.0269775390625 524.3250122070312,1083.2469482421875 524.0759887695312,1083.2469482421875 " fill="#FFFFFF" clip-rule="evenodd" fill-rule="evenodd" clip-path="url(#SVGID_4_)"/>
     <polyline id="svg_756" points="524.2000122070312,1049.0269775390625 524.4500122070312,1049.0269775390625 524.4500122070312,1083.2469482421875 524.2000122070312,1083.2469482421875 " fill="#FFFFFF" clip-rule="evenodd" fill-rule="evenodd" clip-path="url(#SVGID_4_)"/>
     <polyline id="svg_757" points="524.4500122070312,1049.0269775390625 524.7000122070312,1049.0269775390625 524.7000122070312,1083.2469482421875 524.4500122070312,1083.2469482421875 " fill="#FFFFFF" clip-rule="evenodd" fill-rule="evenodd" clip-path="url(#SVGID_4_)"/>
     <polyline id="svg_758" points="524.5750122070312,1049.0269775390625 524.8250122070312,1049.0269775390625 524.8250122070312,1083.2469482421875 524.5750122070312,1083.2469482421875 " fill="#FFFFFF" clip-rule="evenodd" fill-rule="evenodd" clip-path="url(#SVGID_4_)"/>
     <polyline id="svg_759" points="524.7000122070312,1049.0269775390625 524.9500122070312,1049.0269775390625 524.9500122070312,1083.2469482421875 524.7000122070312,1083.2469482421875 " fill="#FFFFFF" clip-rule="evenodd" fill-rule="evenodd" clip-path="url(#SVGID_4_)"/>
     <polyline id="svg_760" points="524.9500122070312,1049.0269775390625 525.2000122070312,1049.0269775390625 525.2000122070312,1083.2469482421875 524.9500122070312,1083.2469482421875 " fill="#FFFFFF" clip-rule="evenodd" fill-rule="evenodd" clip-path="url(#SVGID_4_)"/>
     <polyline id="svg_761" points="525.0750122070312,1049.0269775390625 525.323974609375,1049.0269775390625 525.323974609375,1083.2469482421875 525.0750122070312,1083.2469482421875 " fill="#FFFFFF" clip-rule="evenodd" fill-rule="evenodd" clip-path="url(#SVGID_4_)"/>
     <polyline id="svg_762" points="525.2000122070312,1049.0269775390625 525.448974609375,1049.0269775390625 525.448974609375,1083.2469482421875 525.2000122070312,1083.2469482421875 " fill="#FFFFFF" clip-rule="evenodd" fill-rule="evenodd" clip-path="url(#SVGID_4_)"/>
     <polyline id="svg_763" points="525.448974609375,1049.0269775390625 525.698974609375,1049.0269775390625 525.698974609375,1083.2469482421875 525.448974609375,1083.2469482421875 " fill="#FFFFFF" clip-rule="evenodd" fill-rule="evenodd" clip-path="url(#SVGID_4_)"/>
     <polyline id="svg_764" points="525.573974609375,1049.0269775390625 525.823974609375,1049.0269775390625 525.823974609375,1083.2469482421875 525.573974609375,1083.2469482421875 " fill="#FFFFFF" clip-rule="evenodd" fill-rule="evenodd" clip-path="url(#SVGID_4_)"/>
     <polyline id="svg_765" points="525.823974609375,1049.0269775390625 526.073974609375,1049.0269775390625 526.073974609375,1083.2469482421875 525.823974609375,1083.2469482421875 " fill="#FFFFFF" clip-rule="evenodd" fill-rule="evenodd" clip-path="url(#SVGID_4_)"/>
     <polyline id="svg_766" points="525.948974609375,1049.0269775390625 526.198974609375,1049.0269775390625 526.198974609375,1083.2469482421875 525.948974609375,1083.2469482421875 " fill="#FFFFFF" clip-rule="evenodd" fill-rule="evenodd" clip-path="url(#SVGID_4_)"/>
     <polyline id="svg_767" points="526.073974609375,1049.0269775390625 526.323974609375,1049.0269775390625 526.323974609375,1083.2469482421875 526.073974609375,1083.2469482421875 " fill="#FFFFFF" clip-rule="evenodd" fill-rule="evenodd" clip-path="url(#SVGID_4_)"/>
     <polyline id="svg_768" points="526.323974609375,1049.0269775390625 526.572998046875,1049.0269775390625 526.572998046875,1083.2469482421875 526.323974609375,1083.2469482421875 " fill="#FFFFFF" clip-rule="evenodd" fill-rule="evenodd" clip-path="url(#SVGID_4_)"/>
     <polyline id="svg_769" points="526.447998046875,1049.0269775390625 526.697998046875,1049.0269775390625 526.697998046875,1083.2469482421875 526.447998046875,1083.2469482421875 " fill="#FFFFFF" clip-rule="evenodd" fill-rule="evenodd" clip-path="url(#SVGID_4_)"/>
     <polyline id="svg_770" points="526.572998046875,1049.0269775390625 526.822998046875,1049.0269775390625 526.822998046875,1083.2469482421875 526.572998046875,1083.2469482421875 " fill="#FFFFFF" clip-rule="evenodd" fill-rule="evenodd" clip-path="url(#SVGID_4_)"/>
     <polyline id="svg_771" points="526.822998046875,1049.0269775390625 527.072998046875,1049.0269775390625 527.072998046875,1083.2469482421875 526.822998046875,1083.2469482421875 " fill="#FFFFFF" clip-rule="evenodd" fill-rule="evenodd" clip-path="url(#SVGID_4_)"/>
     <polyline id="svg_772" points="526.947998046875,1049.0269775390625 527.197998046875,1049.0269775390625 527.197998046875,1083.2469482421875 526.947998046875,1083.2469482421875 " fill="#FFFFFF" clip-rule="evenodd" fill-rule="evenodd" clip-path="url(#SVGID_4_)"/>
     <polyline id="svg_773" points="527.072998046875,1049.0269775390625 527.447998046875,1049.0269775390625 527.447998046875,1083.2469482421875 527.072998046875,1083.2469482421875 " fill="#FFFFFF" clip-rule="evenodd" fill-rule="evenodd" clip-path="url(#SVGID_4_)"/>
     <polyline id="svg_774" points="527.322998046875,1049.0269775390625 527.572998046875,1049.0269775390625 527.572998046875,1083.2469482421875 527.322998046875,1083.2469482421875 " fill="#FFFFFF" clip-rule="evenodd" fill-rule="evenodd" clip-path="url(#SVGID_4_)"/>
     <polyline id="svg_775" points="527.447998046875,1049.0269775390625 527.697021484375,1049.0269775390625 527.697021484375,1083.2469482421875 527.447998046875,1083.2469482421875 " fill="#FFFFFF" clip-rule="evenodd" fill-rule="evenodd" clip-path="url(#SVGID_4_)"/>
     <polyline id="svg_776" points="527.697021484375,1049.0269775390625 527.947021484375,1049.0269775390625 527.947021484375,1083.2469482421875 527.697021484375,1083.2469482421875 " fill="#FFFFFF" clip-rule="evenodd" fill-rule="evenodd" clip-path="url(#SVGID_4_)"/>
     <polyline id="svg_777" points="527.822021484375,1049.0269775390625 528.072021484375,1049.0269775390625 528.072021484375,1083.2469482421875 527.822021484375,1083.2469482421875 " fill="#FFFFFF" clip-rule="evenodd" fill-rule="evenodd" clip-path="url(#SVGID_4_)"/>
     <polyline id="svg_778" points="527.947021484375,1049.0269775390625 528.197021484375,1049.0269775390625 528.197021484375,1083.2469482421875 527.947021484375,1083.2469482421875 " fill="#FFFFFF" clip-rule="evenodd" fill-rule="evenodd" clip-path="url(#SVGID_4_)"/>
     <polyline id="svg_779" points="528.197021484375,1049.0269775390625 528.447021484375,1049.0269775390625 528.447021484375,1083.2469482421875 528.197021484375,1083.2469482421875 " fill="#FFFFFF" clip-rule="evenodd" fill-rule="evenodd" clip-path="url(#SVGID_4_)"/>
     <polyline id="svg_780" points="528.322021484375,1049.0269775390625 528.572021484375,1049.0269775390625 528.572021484375,1083.2469482421875 528.322021484375,1083.2469482421875 " fill="#FFFFFF" clip-rule="evenodd" fill-rule="evenodd" clip-path="url(#SVGID_4_)"/>
     <polyline id="svg_781" points="528.447021484375,1049.0269775390625 528.697021484375,1049.0269775390625 528.697021484375,1083.2469482421875 528.447021484375,1083.2469482421875 " fill="#FFFFFF" clip-rule="evenodd" fill-rule="evenodd" clip-path="url(#SVGID_4_)"/>
     <polyline id="svg_782" points="528.697021484375,1049.0269775390625 528.9459838867188,1049.0269775390625 528.9459838867188,1083.2469482421875 528.697021484375,1083.2469482421875 " fill="#FFFFFF" clip-rule="evenodd" fill-rule="evenodd" clip-path="url(#SVGID_4_)"/>
     <polyline id="svg_783" points="528.8209838867188,1049.0269775390625 529.0709838867188,1049.0269775390625 529.0709838867188,1083.2469482421875 528.8209838867188,1083.2469482421875 " fill="#FFFFFF" clip-rule="evenodd" fill-rule="evenodd" clip-path="url(#SVGID_4_)"/>
     <polyline id="svg_784" points="529.0709838867188,1049.0269775390625 529.3209838867188,1049.0269775390625 529.3209838867188,1083.2469482421875 529.0709838867188,1083.2469482421875 " fill="#FFFFFF" clip-rule="evenodd" fill-rule="evenodd" clip-path="url(#SVGID_4_)"/>
     <polyline id="svg_785" points="529.1959838867188,1049.0269775390625 529.4459838867188,1049.0269775390625 529.4459838867188,1083.2469482421875 529.1959838867188,1083.2469482421875 " fill="#FFFFFF" clip-rule="evenodd" fill-rule="evenodd" clip-path="url(#SVGID_4_)"/>
     <polyline id="svg_786" points="529.3209838867188,1049.0269775390625 529.5709838867188,1049.0269775390625 529.5709838867188,1083.2469482421875 529.3209838867188,1083.2469482421875 " fill="#FFFFFF" clip-rule="evenodd" fill-rule="evenodd" clip-path="url(#SVGID_4_)"/>
     <polyline id="svg_787" points="529.5709838867188,1049.0269775390625 529.8209838867188,1049.0269775390625 529.8209838867188,1083.2469482421875 529.5709838867188,1083.2469482421875 " fill="#FFFFFF" clip-rule="evenodd" fill-rule="evenodd" clip-path="url(#SVGID_4_)"/>
     <polyline id="svg_788" points="529.6959838867188,1049.0269775390625 529.9450073242188,1049.0269775390625 529.9450073242188,1083.2469482421875 529.6959838867188,1083.2469482421875 " fill="#FFFFFF" clip-rule="evenodd" fill-rule="evenodd" clip-path="url(#SVGID_4_)"/>
     <polyline id="svg_789" points="529.8209838867188,1049.0269775390625 530.0700073242188,1049.0269775390625 530.0700073242188,1083.2469482421875 529.8209838867188,1083.2469482421875 " fill="#FFFFFF" clip-rule="evenodd" fill-rule="evenodd" clip-path="url(#SVGID_4_)"/>
     <polyline id="svg_790" points="530.0700073242188,1049.0269775390625 530.3200073242188,1049.0269775390625 530.3200073242188,1083.2469482421875 530.0700073242188,1083.2469482421875 " fill="#FFFFFF" clip-rule="evenodd" fill-rule="evenodd" clip-path="url(#SVGID_4_)"/>
     <polyline id="svg_791" points="530.1950073242188,1049.0269775390625 530.4450073242188,1049.0269775390625 530.4450073242188,1083.2469482421875 530.1950073242188,1083.2469482421875 " fill="#FFFFFF" clip-rule="evenodd" fill-rule="evenodd" clip-path="url(#SVGID_4_)"/>
     <polyline id="svg_792" points="530.3200073242188,1049.0269775390625 530.6950073242188,1049.0269775390625 530.6950073242188,1083.2469482421875 530.3200073242188,1083.2469482421875 " fill="#FFFFFF" clip-rule="evenodd" fill-rule="evenodd" clip-path="url(#SVGID_4_)"/>
     <polyline id="svg_793" points="530.5700073242188,1049.0269775390625 530.8200073242188,1049.0269775390625 530.8200073242188,1083.2469482421875 530.5700073242188,1083.2469482421875 " fill="#FFFFFF" clip-rule="evenodd" fill-rule="evenodd" clip-path="url(#SVGID_4_)"/>
     <polyline id="svg_794" points="530.6950073242188,1049.0269775390625 530.9450073242188,1049.0269775390625 530.9450073242188,1083.2469482421875 530.6950073242188,1083.2469482421875 " fill="#FFFFFF" clip-rule="evenodd" fill-rule="evenodd" clip-path="url(#SVGID_4_)"/>
     <polyline id="svg_795" points="530.9450073242188,1049.0269775390625 531.1939697265625,1049.0269775390625 531.1939697265625,1083.2469482421875 530.9450073242188,1083.2469482421875 " fill="#FFFFFF" clip-rule="evenodd" fill-rule="evenodd" clip-path="url(#SVGID_4_)"/>
     <polyline id="svg_796" points="531.0689697265625,1049.0269775390625 531.3189697265625,1049.0269775390625 531.3189697265625,1083.2469482421875 531.0689697265625,1083.2469482421875 " fill="#FFFFFF" clip-rule="evenodd" fill-rule="evenodd" clip-path="url(#SVGID_4_)"/>
     <polyline id="svg_797" points="531.1939697265625,1049.0269775390625 531.4439697265625,1049.0269775390625 531.4439697265625,1083.2469482421875 531.1939697265625,1083.2469482421875 " fill="#FFFFFF" clip-rule="evenodd" fill-rule="evenodd" clip-path="url(#SVGID_4_)"/>
     <polyline id="svg_798" points="531.4439697265625,1049.0269775390625 531.6939697265625,1049.0269775390625 531.6939697265625,1083.2469482421875 531.4439697265625,1083.2469482421875 " fill="#FFFFFF" clip-rule="evenodd" fill-rule="evenodd" clip-path="url(#SVGID_4_)"/>
     <polyline id="svg_799" points="531.5689697265625,1049.0269775390625 531.8189697265625,1049.0269775390625 531.8189697265625,1083.2469482421875 531.5689697265625,1083.2469482421875 " fill="#FFFFFF" clip-rule="evenodd" fill-rule="evenodd" clip-path="url(#SVGID_4_)"/>
     <polyline id="svg_800" points="531.6939697265625,1049.0269775390625 531.9439697265625,1049.0269775390625 531.9439697265625,1083.2469482421875 531.6939697265625,1083.2469482421875 " fill="#FFFFFF" clip-rule="evenodd" fill-rule="evenodd" clip-path="url(#SVGID_4_)"/>
     <polyline id="svg_801" points="531.9439697265625,1049.0269775390625 532.1929931640625,1049.0269775390625 532.1929931640625,1083.2469482421875 531.9439697265625,1083.2469482421875 " fill="#FFFFFF" clip-rule="evenodd" fill-rule="evenodd" clip-path="url(#SVGID_4_)"/>
     <polyline id="svg_802" points="532.0689697265625,1049.0269775390625 532.3179931640625,1049.0269775390625 532.3179931640625,1083.2469482421875 532.0689697265625,1083.2469482421875 " fill="#FFFFFF" clip-rule="evenodd" fill-rule="evenodd" clip-path="url(#SVGID_4_)"/>
     <polyline id="svg_803" points="532.3179931640625,1049.0269775390625 532.5679931640625,1049.0269775390625 532.5679931640625,1083.2469482421875 532.3179931640625,1083.2469482421875 " fill="#FFFFFF" clip-rule="evenodd" fill-rule="evenodd" clip-path="url(#SVGID_4_)"/>
     <polyline id="svg_804" points="532.4429931640625,1049.0269775390625 532.6929931640625,1049.0269775390625 532.6929931640625,1083.2469482421875 532.4429931640625,1083.2469482421875 " fill="#FFFFFF" clip-rule="evenodd" fill-rule="evenodd" clip-path="url(#SVGID_4_)"/>
     <polyline id="svg_805" points="532.5679931640625,1049.0269775390625 532.8179931640625,1049.0269775390625 532.8179931640625,1083.2469482421875 532.5679931640625,1083.2469482421875 " fill="#FFFFFF" clip-rule="evenodd" fill-rule="evenodd" clip-path="url(#SVGID_4_)"/>
     <polyline id="svg_806" points="532.8179931640625,1049.0269775390625 533.0679931640625,1049.0269775390625 533.0679931640625,1083.2469482421875 532.8179931640625,1083.2469482421875 " fill="#FFFFFF" clip-rule="evenodd" fill-rule="evenodd" clip-path="url(#SVGID_4_)"/>
     <polyline id="svg_807" points="532.9429931640625,1049.0269775390625 533.1929931640625,1049.0269775390625 533.1929931640625,1083.2469482421875 532.9429931640625,1083.2469482421875 " fill="#FFFFFF" clip-rule="evenodd" fill-rule="evenodd" clip-path="url(#SVGID_4_)"/>
     <polyline id="svg_808" points="533.0679931640625,1049.0269775390625 533.3170166015625,1049.0269775390625 533.3170166015625,1083.2469482421875 533.0679931640625,1083.2469482421875 " fill="#FFFFFF" clip-rule="evenodd" fill-rule="evenodd" clip-path="url(#SVGID_4_)"/>
     <polyline id="svg_809" points="533.3170166015625,1049.0269775390625 533.5670166015625,1049.0269775390625 533.5670166015625,1083.2469482421875 533.3170166015625,1083.2469482421875 " fill="#FFFFFF" clip-rule="evenodd" fill-rule="evenodd" clip-path="url(#SVGID_4_)"/>
     <polyline id="svg_810" points="533.4420166015625,1049.0269775390625 533.6920166015625,1049.0269775390625 533.6920166015625,1083.2469482421875 533.4420166015625,1083.2469482421875 " fill="#FFFFFF" clip-rule="evenodd" fill-rule="evenodd" clip-path="url(#SVGID_4_)"/>
     <polyline id="svg_811" points="533.5670166015625,1049.0269775390625 533.8170166015625,1049.0269775390625 533.8170166015625,1083.2469482421875 533.5670166015625,1083.2469482421875 " fill="#FFFFFF" clip-rule="evenodd" fill-rule="evenodd" clip-path="url(#SVGID_4_)"/>
     <polyline id="svg_812" points="533.8170166015625,1049.0269775390625 534.0670166015625,1049.0269775390625 534.0670166015625,1083.2469482421875 533.8170166015625,1083.2469482421875 " fill="#FFFFFF" clip-rule="evenodd" fill-rule="evenodd" clip-path="url(#SVGID_4_)"/>
     <polyline id="svg_813" points="533.9420166015625,1049.0269775390625 534.1920166015625,1049.0269775390625 534.1920166015625,1083.2469482421875 533.9420166015625,1083.2469482421875 " fill="#FFFFFF" clip-rule="evenodd" fill-rule="evenodd" clip-path="url(#SVGID_4_)"/>
     <polyline id="svg_814" points="534.1920166015625,1049.0269775390625 534.4409790039062,1049.0269775390625 534.4409790039062,1083.2469482421875 534.1920166015625,1083.2469482421875 " fill="#FFFFFF" clip-rule="evenodd" fill-rule="evenodd" clip-path="url(#SVGID_4_)"/>
     <polyline id="svg_815" points="534.3170166015625,1049.0269775390625 534.5659790039062,1049.0269775390625 534.5659790039062,1083.2469482421875 534.3170166015625,1083.2469482421875 " fill="#FFFFFF" clip-rule="evenodd" fill-rule="evenodd" clip-path="url(#SVGID_4_)"/>
     <polyline id="svg_816" points="534.4409790039062,1049.0269775390625 534.6909790039062,1049.0269775390625 534.6909790039062,1083.2469482421875 534.4409790039062,1083.2469482421875 " fill="#FFFFFF" clip-rule="evenodd" fill-rule="evenodd" clip-path="url(#SVGID_4_)"/>
     <polyline id="svg_817" points="534.6909790039062,1049.0269775390625 534.9409790039062,1049.0269775390625 534.9409790039062,1083.2469482421875 534.6909790039062,1083.2469482421875 " fill="#FFFFFF" clip-rule="evenodd" fill-rule="evenodd" clip-path="url(#SVGID_4_)"/>
     <polyline id="svg_818" points="534.8159790039062,1049.0269775390625 535.0659790039062,1049.0269775390625 535.0659790039062,1083.2469482421875 534.8159790039062,1083.2469482421875 " fill="#FFFFFF" clip-rule="evenodd" fill-rule="evenodd" clip-path="url(#SVGID_4_)"/>
     <polyline id="svg_819" points="534.9409790039062,1049.0269775390625 535.1909790039062,1049.0269775390625 535.1909790039062,1083.2469482421875 534.9409790039062,1083.2469482421875 " fill="#FFFFFF" clip-rule="evenodd" fill-rule="evenodd" clip-path="url(#SVGID_4_)"/>
     <polyline id="svg_820" points="535.1909790039062,1049.0269775390625 535.4409790039062,1049.0269775390625 535.4409790039062,1083.2469482421875 535.1909790039062,1083.2469482421875 " fill="#FFFFFF" clip-rule="evenodd" fill-rule="evenodd" clip-path="url(#SVGID_4_)"/>
     <polyline id="svg_821" points="535.3159790039062,1049.0269775390625 535.5650024414062,1049.0269775390625 535.5650024414062,1083.2469482421875 535.3159790039062,1083.2469482421875 " fill="#FFFFFF" clip-rule="evenodd" fill-rule="evenodd" clip-path="url(#SVGID_4_)"/>
     <polyline id="svg_822" points="535.4409790039062,1049.0269775390625 535.8150024414062,1049.0269775390625 535.8150024414062,1083.2469482421875 535.4409790039062,1083.2469482421875 " fill="#FFFFFF" clip-rule="evenodd" fill-rule="evenodd" clip-path="url(#SVGID_4_)"/>
     <polyline id="svg_823" points="535.6900024414062,1049.0269775390625 535.9400024414062,1049.0269775390625 535.9400024414062,1083.2469482421875 535.6900024414062,1083.2469482421875 " fill="#FFFFFF" clip-rule="evenodd" fill-rule="evenodd" clip-path="url(#SVGID_4_)"/>
     <polyline id="svg_824" points="535.8150024414062,1049.0269775390625 536.0650024414062,1049.0269775390625 536.0650024414062,1083.2469482421875 535.8150024414062,1083.2469482421875 " fill="#FFFFFF" clip-rule="evenodd" fill-rule="evenodd" clip-path="url(#SVGID_4_)"/>
     <polyline id="svg_825" points="536.0650024414062,1049.0269775390625 536.3150024414062,1049.0269775390625 536.3150024414062,1083.2469482421875 536.0650024414062,1083.2469482421875 " fill="#FFFFFF" clip-rule="evenodd" fill-rule="evenodd" clip-path="url(#SVGID_4_)"/>
     <polyline id="svg_826" points="536.1900024414062,1049.0269775390625 536.4400024414062,1049.0269775390625 536.4400024414062,1083.2469482421875 536.1900024414062,1083.2469482421875 " fill="#FFFFFF" clip-rule="evenodd" fill-rule="evenodd" clip-path="url(#SVGID_4_)"/>
     <polyline id="svg_827" points="536.3150024414062,1049.0269775390625 536.5650024414062,1049.0269775390625 536.5650024414062,1083.2469482421875 536.3150024414062,1083.2469482421875 " fill="#FFFFFF" clip-rule="evenodd" fill-rule="evenodd" clip-path="url(#SVGID_4_)"/>
     <polyline id="svg_828" points="536.5650024414062,1049.0269775390625 536.8140258789062,1049.0269775390625 536.8140258789062,1083.2469482421875 536.5650024414062,1083.2469482421875 " fill="#FFFFFF" clip-rule="evenodd" fill-rule="evenodd" clip-path="url(#SVGID_4_)"/>
     <polyline id="svg_829" points="536.6900024414062,1049.0269775390625 536.9390258789062,1049.0269775390625 536.9390258789062,1083.2469482421875 536.6900024414062,1083.2469482421875 " fill="#FFFFFF" clip-rule="evenodd" fill-rule="evenodd" clip-path="url(#SVGID_4_)"/>
     <polyline id="svg_830" points="536.8140258789062,1049.0269775390625 537.0640258789062,1049.0269775390625 537.0640258789062,1083.2469482421875 536.8140258789062,1083.2469482421875 " fill="#FFFFFF" clip-rule="evenodd" fill-rule="evenodd" clip-path="url(#SVGID_4_)"/>
     <polyline id="svg_831" points="537.0640258789062,1049.0269775390625 537.3140258789062,1049.0269775390625 537.3140258789062,1083.2469482421875 537.0640258789062,1083.2469482421875 " fill="#FFFFFF" clip-rule="evenodd" fill-rule="evenodd" clip-path="url(#SVGID_4_)"/>
     <polyline id="svg_832" points="537.1890258789062,1049.0269775390625 537.4390258789062,1049.0269775390625 537.4390258789062,1083.2469482421875 537.1890258789062,1083.2469482421875 " fill="#FFFFFF" clip-rule="evenodd" fill-rule="evenodd" clip-path="url(#SVGID_4_)"/>
     <polyline id="svg_833" points="537.4390258789062,1049.0269775390625 537.6890258789062,1049.0269775390625 537.6890258789062,1083.2469482421875 537.4390258789062,1083.2469482421875 " fill="#FFFFFF" clip-rule="evenodd" fill-rule="evenodd" clip-path="url(#SVGID_4_)"/>
     <polyline id="svg_834" points="537.5640258789062,1049.0269775390625 537.8140258789062,1049.0269775390625 537.8140258789062,1083.2469482421875 537.5640258789062,1083.2469482421875 " fill="#FFFFFF" clip-rule="evenodd" fill-rule="evenodd" clip-path="url(#SVGID_4_)"/>
     <polyline id="svg_835" points="537.6890258789062,1049.0269775390625 537.93798828125,1049.0269775390625 537.93798828125,1083.2469482421875 537.6890258789062,1083.2469482421875 " fill="#FFFFFF" clip-rule="evenodd" fill-rule="evenodd" clip-path="url(#SVGID_4_)"/>
     <polyline id="svg_836" points="537.93798828125,1049.0269775390625 538.18798828125,1049.0269775390625 538.18798828125,1083.2469482421875 537.93798828125,1083.2469482421875 " fill="#FFFFFF" clip-rule="evenodd" fill-rule="evenodd" clip-path="url(#SVGID_4_)"/>
    </g>
   </g>
   <g id="svg_837">
    <g id="svg_838">
     <defs transform="translate(0,1) translate(-1,0) ">
      <path d="m519.58,1049.526c-2.248,-1.499 -4.746,-0.749 -7.244,2.123l0,0l-14.238,25.727l-0.749,1.499l-0.125,0.25l-1.748,3.122l43.712,0l-19.608,-32.721z" id="SVGID_5_"/>
     </defs>
     <clipPath transform="translate(0,1) translate(-1,0) " id="SVGID_6_">
      <use id="svg_839" xlink:href="#SVGID_5_"/>
     </clipPath>
    </g>
   </g>
  </g>
  <circle id="svg_921" r="216.5" cy="961" cx="539" stroke-miterlimit="10" stroke-width="6" stroke="#4D5152" fill="none" clip-rule="evenodd" fill-rule="evenodd"/>
 </g>
</svg>